#!OML:ASF H:\Male1\Project 1\Capture day 1\Session 1\Male1.ASF
:FULLY-SPECIFIED
:DEGREES
561
root 30.5694 15.4638 0.0988525 1017.82 274.499 420.162
lowerback 5.664 0.953243 -5.39546
upperback 5.081 0.925992 -1.43123
thorax 2.01338 0.264136 1.50702
lowerneck -11.7402 3.3512 6.0165
upperneck 10.6754 3.97983 -3.90131
head 5.33829 1.91641 -1.87636
rclavicle 5.26779e-015 -1.5704e-014
rhumerus -38.6554 4.27336 -88.5826
rradius 34.4822
rwrist -17.2963
rhand -16.6427 -0.695364
rfingers 7.12502
rthumb 9.58011 -30.4576
lclavicle 5.26779e-015 -1.5704e-014
lhumerus -21.0511 -11.976 89.7994
lradius 25.7763
lwrist -6.21373
lhand -19.5221 11.4212
lfingers 7.12502
lthumb 6.80114 41.292
rfemur -18.8061 0.0449382 18.7165
rtibia 70.2576
rfoot -10.8215 -16.0022
rtoes -23.7591
lfemur -3.41242 -12.6144 -30.039
ltibia 21.5743
lfoot -16.4358 12.1529
ltoes -3.22201
562
root 30.277 15.4391 0.110958 1017.42 274.534 420.393
lowerback 5.8601 0.889824 -5.33662
upperback 5.00494 0.82769 -1.49681
thorax 1.83278 0.22331 1.40837
lowerneck -11.6766 3.30312 5.82087
upperneck 10.9907 3.90159 -3.4961
head 5.41032 1.89895 -1.72414
rclavicle -1.05853e-014 2.38542e-014
rhumerus -39.1206 4.16817 -88.7707
rradius 34.6127
rwrist -17.4008
rhand -16.6106 -0.98221
rfingers 7.12502
rthumb 9.61104 -30.743
lclavicle -1.05853e-014 2.38542e-014
lhumerus -20.1258 -14.1698 90.2501
lradius 26.8082
lwrist -5.15191
lhand -21.9661 12.8499
lfingers 7.12502
lthumb 4.44147 42.7833
rfemur -21.1878 0.728173 18.926
rtibia 69.2434
rfoot -12.4247 -17.1102
rtoes -24.0919
lfemur -1.81215 -12.6532 -30.4434
ltibia 21.3397
lfoot -17.3536 12.3894
ltoes -3.11869
563
root 29.9908 15.4086 0.12051 1019.89 274.701 417.547
lowerback 6.09973 0.852609 -5.49689
upperback 5.14098 0.752885 -1.39625
thorax 1.84394 0.174491 1.60263
lowerneck -11.6874 3.42998 6.11362
upperneck 10.9148 4.05718 -3.76433
head 5.40759 1.96829 -1.84244
rclavicle -4.37326e-015 -2.68359e-014
rhumerus -39.2764 3.98077 -88.6523
rradius 34.7355
rwrist -17.449
rhand -16.39 -1.38924
rfingers 7.12502
rthumb 9.82387 -31.1401
lclavicle -4.37326e-015 -2.68359e-014
lhumerus -18.9853 -16.5953 90.8229
lradius 27.9649
lwrist -3.29492
lhand -21.8843 13.0234
lfingers 7.12502
lthumb 4.52045 42.9552
rfemur -23.0472 1.18987 19.0688
rtibia 67.5036
rfoot -13.9534 -17.9808
rtoes -23.9851
lfemur 0.148421 -12.8345 -30.898
ltibia 20.9442
lfoot -18.2383 12.4661
ltoes -2.76113
564
root 29.6982 15.3882 0.130319 1021.86 274.866 415.731
lowerback 5.64089 0.873488 -5.851
upperback 5.22809 0.80572 -1.19925
thorax 2.18236 0.178525 2.00582
lowerneck -11.5276 3.04003 5.79205
upperneck 10.9927 3.57498 -3.61286
head 5.3718 1.73145 -1.78582
rclavicle -1.32937e-014 -8.74653e-015
rhumerus -39.3182 3.75441 -88.32
rradius 34.8718
rwrist -17.5398
rhand -16.1747 -1.45707
rfingers 7.12502
rthumb 10.0316 -31.198
lclavicle -1.32937e-014 -8.74653e-015
lhumerus -18.1673 -19.0425 91.5421
lradius 29.1941
lwrist -3.40186
lhand -20.3882 11.9764
lfingers 7.12502
lthumb 5.96505 41.8724
rfemur -25.152 1.68065 19.0691
rtibia 65.0362
rfoot -15.3828 -18.6544
rtoes -22.7011
lfemur 1.77617 -13.0346 -31.2722
ltibia 20.168
lfoot -18.9719 12.5652
ltoes -3.41949
565
root 29.3981 15.371 0.136908 1023.12 275.19 414.48
lowerback 5.72574 0.669245 -5.82041
upperback 5.10684 0.527333 -1.3999
thorax 2.03187 0.0505835 1.79176
lowerneck -11.4734 3.23625 6.04583
upperneck 11.0824 3.81103 -3.69204
head 5.40891 1.85228 -1.83228
rclavicle 1.06847e-015 -3.77691e-015
rhumerus -39.5668 3.82704 -88.6744
rradius 34.8859
rwrist -17.5665
rhand -16.12 -1.24529
rfingers 7.12502
rthumb 10.0844 -30.9837
lclavicle 1.06847e-015 -3.77691e-015
lhumerus -17.521 -20.8224 91.5045
lradius 31.5191
lwrist -0.577425
lhand -18.63 15.3141
lfingers 7.12502
lthumb 7.66227 45.1553
rfemur -26.6663 2.08287 18.8428
rtibia 61.8327
rfoot -16.3034 -19.6428
rtoes -22.9186
lfemur 3.69912 -13.013 -31.7789
ltibia 18.9466
lfoot -19.2691 12.6162
ltoes -2.8946
566
root 29.1002 15.3599 0.143302 1024.05 275.554 413.581
lowerback 5.63609 0.570072 -6.00747
upperback 5.10854 0.395591 -1.47382
thorax 2.09423 -0.0213611 1.82521
lowerneck -11.5571 3.24017 5.92118
upperneck 11.4572 3.80291 -3.44562
head 5.53276 1.85981 -1.73347
rclavicle 4.44781e-015 -1.98785e-016
rhumerus -39.5063 3.78696 -88.7445
rradius 34.7433
rwrist -17.5322
rhand -15.8857 -1.19905
rfingers 7.12502
rthumb 10.3104 -30.9263
lclavicle 4.44781e-015 -1.98785e-016
lhumerus -16.8442 -22.5011 91.6029
lradius 33.35
lwrist 0.826587
lhand -18.9685 15.3244
lfingers 7.12502
lthumb 7.33554 45.1772
rfemur -27.8306 2.48685 18.4903
rtibia 57.9655
rfoot -16.9757 -20.8455
rtoes -23.5476
lfemur 5.81878 -12.829 -32.2923
ltibia 17.1868
lfoot -19.1402 12.6071
ltoes -3.99456
567
root 28.8008 15.3527 0.145678 1024.82 275.772 412.841
lowerback 5.5145 0.542105 -6.19531
upperback 5.12198 0.362297 -1.4539
thorax 2.17916 -0.0461514 1.95209
lowerneck -11.3991 3.16753 5.97447
upperneck 11.4245 3.71084 -3.49726
head 5.49353 1.81476 -1.76832
rclavicle -3.70236e-015 9.93923e-015
rhumerus -39.3629 3.71483 -88.7012
rradius 34.5912
rwrist -17.5621
rhand -15.9086 -1.57788
rfingers 7.12502
rthumb 10.2884 -31.3062
lclavicle -3.70236e-015 9.93923e-015
lhumerus -16.2597 -23.8003 91.7514
lradius 35.5009
lwrist 2.86505
lhand -18.6348 16.5584
lfingers 7.12502
lthumb 7.65763 46.3997
rfemur -28.6367 3.11953 18.2164
rtibia 53.5634
rfoot -18.0418 -21.7925
rtoes -22.9902
lfemur 8.29549 -12.5215 -32.6345
ltibia 14.87
lfoot -18.805 12.5593
ltoes -4.31655
568
root 28.4935 15.3425 0.141171 1026.47 275.88 411.035
lowerback 5.57653 0.538077 -6.21678
upperback 5.14758 0.35117 -1.43591
thorax 2.17219 -0.0534143 1.98277
lowerneck -11.2192 3.06098 5.98949
upperneck 11.4396 3.57027 -3.47053
head 5.46097 1.75008 -1.77642
rclavicle 1.44616e-014 2.0276e-014
rhumerus -39.4098 3.6135 -88.7328
rradius 34.6807
rwrist -17.6988
rhand -15.7147 -1.65454
rfingers 7.12502
rthumb 10.4753 -31.3735
lclavicle 1.44616e-014 2.0276e-014
lhumerus -15.8881 -25.1238 91.8914
lradius 37.1154
lwrist 3.95211
lhand -19.9095 13.3453
lfingers 7.12502
lthumb 6.42722 43.2278
rfemur -28.8753 4.01703 18.0727
rtibia 48.8001
rfoot -19.1105 -22.7714
rtoes -17.9995
lfemur 11.299 -12.1635 -32.7829
ltibia 12.0651
lfoot -18.3037 12.4236
ltoes -4.28553
569
root 28.1921 15.3273 0.140354 1025.6 275.809 411.956
lowerback 5.47499 0.696065 -6.07116
upperback 5.12975 0.57523 -1.53772
thorax 2.19307 0.0645813 1.78876
lowerneck -11.3223 3.0201 6.21316
upperneck 11.6685 3.44802 -3.29559
head 5.54549 1.71232 -1.76631
rclavicle 1.12562e-014 1.19271e-015
rhumerus -39.4841 3.26847 -88.7846
rradius 34.8916
rwrist -17.7225
rhand -15.6747 -1.65001
rfingers 7.12502
rthumb 10.514 -31.3671
lclavicle 1.12562e-014 1.19271e-015
lhumerus -15.5234 -26.5564 91.9435
lradius 38.7856
lwrist 5.07446
lhand -20.5298 11.8535
lfingers 7.12502
lthumb 5.82836 41.7533
rfemur -29.3252 5.31783 17.7416
rtibia 44.0641
rfoot -20.8643 -24.3158
rtoes -19.4054
lfemur 14.6766 -11.5036 -32.8997
ltibia 7.93142
lfoot -17.0599 12.2128
ltoes -3.70976
570
root 27.8873 15.2979 0.13123 1025.12 275.869 412.326
lowerback 5.48345 0.546138 -6.37439
upperback 5.29065 0.365049 -1.35645
thorax 2.37271 -0.0631269 2.15206
lowerneck -11.6377 3.14567 5.85133
upperneck 11.8443 3.66936 -3.32809
head 5.65789 1.79967 -1.695
rclavicle -7.25564e-015 -2.10712e-014
rhumerus -39.1052 4.16145 -88.7608
rradius 34.9972
rwrist -17.9027
rhand -15.7104 -1.56666
rfingers 7.12502
rthumb 10.4796 -31.2854
lclavicle -7.25564e-015 -2.10712e-014
lhumerus -14.9742 -26.5245 91.9462
lradius 40.6381
lwrist 5.9414
lhand -20.3492 12.6869
lfingers 7.12502
lthumb 6.0027 42.5818
rfemur -29.5177 7.17566 17.1554
rtibia 39.5693
rfoot -23.2074 -25.8036
rtoes -16.8646
lfemur 20.2195 -10.9314 -33.0281
ltibia 7.63333e-014
lfoot -13.8392 12.0229
ltoes -3.03637
571
root 27.5772 15.277 0.118294 1023.07 276.188 414.212
lowerback 5.48553 0.462649 -6.89113
upperback 5.41969 0.234989 -1.34216
thorax 2.52139 -0.155214 2.45848
lowerneck -11.8076 3.25132 5.60784
upperneck 12.0072 3.8378 -3.25764
head 5.73933 1.87446 -1.61612
rclavicle -8.15017e-015 -1.92821e-014
rhumerus -38.8658 4.75608 -88.7826
rradius 35.2058
rwrist -18.1517
rhand -15.7073 -1.75411
rfingers 7.12502
rthumb 10.4825 -31.4727
lclavicle -8.15017e-015 -1.92821e-014
lhumerus -14.7195 -26.5507 91.9449
lradius 42.3386
lwrist 6.32865
lhand -20.873 12.9719
lfingers 7.12502
lthumb 5.49697 42.8806
rfemur -29.5128 9.7425 15.9722
rtibia 35.8089
rfoot -25.472 -27.0395
rtoes -16.88
lfemur 21.6437 -10.3617 -33.4641
ltibia -3.18055e-014
lfoot -14.3012 11.699
ltoes -3.10739
572
root 27.2623 15.2397 0.105073 1021.33 276.605 415.789
lowerback 5.46883 0.422687 -7.39266
upperback 5.5056 0.165345 -1.40849
thorax 2.63228 -0.21369 2.67064
lowerneck -11.7871 3.22104 5.58691
upperneck 12.2258 3.81099 -3.31222
head 5.80405 1.85628 -1.63227
rclavicle -3.52843e-015 -9.93923e-017
rhumerus -38.7218 5.10829 -88.8238
rradius 35.4518
rwrist -18.3808
rhand -15.7062 -2.12267
rfingers 7.12502
rthumb 10.4836 -31.8413
lclavicle -3.52843e-015 -9.93923e-017
lhumerus -14.6405 -26.6662 92.014
lradius 43.8479
lwrist 6.74015
lhand -21.9889 12.3013
lfingers 7.12502
lthumb 4.41945 42.2352
rfemur -29.795 13.1475 14.342
rtibia 32.8573
rfoot -28.818 -29.1321
rtoes -12.5739
lfemur 23.0941 -9.85186 -33.9429
ltibia -3.18055e-015
lfoot -14.5533 11.4161
ltoes -3.83589
573
root 26.945 15.2109 0.0867206 1020.71 276.762 416.299
lowerback 5.30159 0.406667 -7.66391
upperback 5.57005 0.152737 -1.36842
thorax 2.79784 -0.237812 2.86311
lowerneck -11.7164 3.40442 5.94052
upperneck 12.1721 4.04043 -3.5917
head 5.79908 1.96415 -1.75857
rclavicle 1.43995e-014 8.24956e-015
rhumerus -38.5588 5.45374 -88.8045
rradius 35.6366
rwrist -18.624
rhand -15.7454 -2.1454
rfingers 7.12502
rthumb 10.4458 -31.8659
lclavicle 1.43995e-014 8.24956e-015
lhumerus -14.6477 -26.7666 92.1928
lradius 45.0535
lwrist 7.20461
lhand -22.5306 11.5764
lfingers 7.12502
lthumb 3.89635 41.5205
rfemur -30.204 17.1909 12.7881
rtibia 30.995
rfoot -32.2867 -30.6545
rtoes -8.71554
lfemur 24.46 -9.34879 -34.0096
ltibia 6.99722e-014
lfoot -14.5756 10.9332
ltoes -4.30526
